<svg width="100%" viewBox="0 0 400 300" xmlns="http://www.w3.org/2000/svg"><rect width="400" height="300" fill="#f5f0e8"/><rect x="200" y="90" width="80" height="120" rx="4" fill="#ffffff" stroke="#c8b89a" stroke-width="1.5"/><rect x="200" y="90" width="80" height="20" rx="4" fill="#4a5240"/><rect x="208" y="118" width="64" height="4" rx="2" fill="#e8ddd0"/><rect x="208" y="128" width="64" height="4" rx="2" fill="#e8ddd0"/><rect x="208" y="138" width="50" height="4" rx="2" fill="#e8ddd0"/><rect x="208" y="148" width="64" height="4" rx="2" fill="#e8ddd0"/><rect x="120" y="88" width="14" height="118" rx="6" fill="#1a1a16"/><rect x="120" y="88" width="14" height="10" rx="6" fill="#c8b89a"/><rect x="145" y="92" width="12" height="110" rx="5" fill="#4a5240"/><rect x="145" y="92" width="12" height="10" rx="5" fill="#c8b89a"/><rect x="165" y="95" width="12" height="107" rx="5" fill="#6b7560"/><rect x="165" y="95" width="12" height="10" rx="5" fill="#c8b89a"/></svg>