<svg width="100%" viewBox="0 0 400 300" xmlns="http://www.w3.org/2000/svg"><rect width="400" height="300" fill="#f5f0e8"/><path d="M200 150 C200 150 160 130 150 150 C140 170 160 190 200 180 C240 170 260 150 250 130 C240 110 220 120 200 150" fill="none" stroke="#1a1a16" stroke-width="6" stroke-linecap="round"/><path d="M200 150 C200 150 240 130 250 150 C260 170 240 190 200 180" fill="none" stroke="#4a5240" stroke-width="4" stroke-linecap="round"/><rect x="132" y="145" width="24" height="14" rx="4" fill="#1a1a16"/><rect x="136" y="148" width="6" height="8" rx="1" fill="#c8b89a"/><rect x="144" y="148" width="6" height="8" rx="1" fill="#c8b89a"/><rect x="260" y="123" width="18" height="28" rx="4" fill="#6b7560"/><rect x="264" y="128" width="10" height="18" rx="2" fill="#4a5240"/><rect x="267" y="133" width="4" height="8" rx="1" fill="#d4a017"/></svg>